<?xml version="1.0" encoding="UTF-8"?>
<svg width="700pt" height="700pt" version="1.1" viewBox="0 0 700 700" xmlns="http://www.w3.org/2000/svg">
 <path d="m537.43 442.57-84.523-84.352-0.003906 0.003906c26.852-33.168 39.945-75.375 36.594-117.92-3.3555-42.539-22.906-82.172-54.621-110.72-31.715-28.551-73.176-43.84-115.84-42.723-42.656 1.1211-83.258 18.566-113.43 48.738-30.172 30.176-47.617 70.777-48.738 113.43-1.1172 42.66 14.172 84.121 42.723 115.84 28.551 31.715 68.184 51.266 110.72 54.621 42.543 3.3516 84.75-9.7422 117.92-36.594l84.352 84.523-0.003906 0.003906c3.2852 3.3125 7.7578 5.1758 12.426 5.1758s9.1406-1.8633 12.426-5.1758c3.3125-3.2852 5.1758-7.7578 5.1758-12.426s-1.8633-9.1406-5.1758-12.426zm-213.68-57.574c-34.809 0-68.195-13.828-92.809-38.441-24.613-24.613-38.441-58-38.441-92.809s13.828-68.195 38.441-92.809c24.613-24.613 58-38.441 92.809-38.441s68.195 13.828 92.809 38.441c24.613 24.613 38.441 58 38.441 92.809s-13.828 68.195-38.441 92.809c-24.613 24.613-58 38.441-92.809 38.441z"/>
</svg>
