<?xml version="1.0" encoding="UTF-8"?>
<svg width="700pt" height="700pt" version="1.1" viewBox="0 0 700 700" xmlns="http://www.w3.org/2000/svg">
 <path d="m367.09 474.97c-76.289 0-148.87-45.043-180.11-119.71-20.098-48.062-20.297-101.05-0.54688-149.21 19.75-48.16 57.086-85.75 105.15-105.86 34.684-14.52 72.195-18.75 108.5-12.266 2.8906 0.51953 5.1562 2.7812 5.6602 5.6758 0.51172 2.8906-0.83594 5.7891-3.3711 7.2656-65.934 38.352-93.395 120.46-63.883 191.01 29.512 70.535 107.28 108.62 180.85 88.621 2.8242-0.78125 5.8438 0.30078 7.5469 2.6992 1.6953 2.3945 1.7227 5.5898 0.070313 8.0117-20.828 30.379-50.195 54.121-84.914 68.66-24.492 10.238-49.93 15.094-74.957 15.094zm-0.35547-375.99c-23.664 0-47.332 4.7578-69.746 14.137-44.609 18.656-79.27 53.547-97.598 98.246-18.336 44.699-18.148 93.887 0.51172 138.5 38.508 92.039 144.7 135.63 236.74 97.098 26.387-11.047 49.43-27.809 67.512-48.973-74.391 11.156-148.88-29.715-178.58-100.7-29.695-70.992-6.5195-152.72 53.684-197.86-4.168-0.29297-8.3477-0.44531-12.523-0.44531z"/>
</svg>
